<svg width="42" height="42" viewBox="0 0 42 42" fill="none" xmlns="http://www.w3.org/2000/svg">
<g clip-path="url(#clip0_194_1036)">
<path d="M41.5283 7.0382L21.2283 0.0381958C21.0803 -0.0127319 20.9197 -0.0127319 20.7717 0.0381958L0.47168 7.0382C0.189697 7.13561 0 7.40118 0 7.69957V41.2996C0 41.6861 0.313428 41.9996 0.7 41.9996H4.2C4.58657 41.9996 4.9 41.6861 4.9 41.2996V16.7996H37.1V41.2996C37.1 41.6861 37.4134 41.9996 37.8 41.9996H41.3C41.6866 41.9996 42 41.6861 42 41.2996V7.69957C42 7.40118 41.8103 7.13561 41.5283 7.0382ZM37.1 15.3996H4.9V13.9996H37.1V15.3996ZM37.1 12.5996H4.9V11.1996H37.1V12.5996ZM40.6 40.5996H38.5V10.4996C38.5 10.113 38.1866 9.79957 37.8 9.79957H4.2C3.81343 9.79957 3.5 10.113 3.5 10.4996V40.5996H1.4V8.1986L21 1.44025L40.6 8.1986V40.5996Z" fill="black"/>
<path d="M32.1998 26.5996H24.4998V20.2996C24.4998 19.913 24.1864 19.5996 23.7998 19.5996H6.9998C6.61323 19.5996 6.2998 19.913 6.2998 20.2996V41.2996C6.2998 41.6862 6.61323 41.9996 6.9998 41.9996H32.1998C32.5864 41.9996 32.8998 41.6862 32.8998 41.2996V27.2996C32.8998 26.913 32.5864 26.5996 32.1998 26.5996ZM10.4998 20.9996H11.8998V22.3996H10.4998V20.9996ZM14.6998 40.5996H7.6998V34.9996H9.0998V37.0996C9.0998 37.4862 9.41323 37.7996 9.7998 37.7996H12.5998C12.9864 37.7996 13.2998 37.4862 13.2998 37.0996V34.9996H14.6998V40.5996ZM10.4998 36.3996V34.9996H11.8998V36.3996H10.4998ZM14.6998 33.5996H7.6998V27.9996H9.0998V30.0996C9.0998 30.4862 9.41323 30.7996 9.7998 30.7996H12.5998C12.9864 30.7996 13.2998 30.4862 13.2998 30.0996V27.9996H14.6998V33.5996ZM10.4998 29.3996V27.9996H11.8998V29.3996H10.4998ZM14.6998 26.5996H7.6998V20.9996H9.0998V23.0996C9.0998 23.4862 9.41323 23.7996 9.7998 23.7996H12.5998C12.9864 23.7996 13.2998 23.4862 13.2998 23.0996V20.9996H14.6998V26.5996ZM18.8998 20.9996H20.2998V22.3996H18.8998V20.9996ZM23.0998 40.5996H16.0998V34.9996H17.4998V37.0996C17.4998 37.4862 17.8132 37.7996 18.1998 37.7996H20.9998C21.3864 37.7996 21.6998 37.4862 21.6998 37.0996V34.9996H23.0998V40.5996ZM18.8998 36.3996V34.9996H20.2998V36.3996H18.8998ZM23.0998 33.5996H16.0998V27.9996H17.4998V30.0996C17.4998 30.4862 17.8132 30.7996 18.1998 30.7996H20.9998C21.3864 30.7996 21.6998 30.4862 21.6998 30.0996V27.9996H23.0998V33.5996ZM18.8998 29.3996V27.9996H20.2998V29.3996H18.8998ZM23.0998 26.5996H16.0998V20.9996H17.4998V23.0996C17.4998 23.4862 17.8132 23.7996 18.1998 23.7996H20.9998C21.3864 23.7996 21.6998 23.4862 21.6998 23.0996V20.9996H23.0998V26.5996ZM27.2998 27.9996H28.6998V29.3996H27.2998V27.9996ZM31.4998 40.5996H24.4998V34.9996H25.8998V37.0996C25.8998 37.4862 26.2132 37.7996 26.5998 37.7996H29.3998C29.7864 37.7996 30.0998 37.4862 30.0998 37.0996V34.9996H31.4998V40.5996ZM27.2998 36.3996V34.9996H28.6998V36.3996H27.2998ZM31.4998 33.5996H24.4998V27.9996H25.8998V30.0996C25.8998 30.4862 26.2132 30.7996 26.5998 30.7996H29.3998C29.7864 30.7996 30.0998 30.4862 30.0998 30.0996V27.9996H31.4998V33.5996Z" fill="black"/>
</g>
<defs>
<clipPath id="clip0_194_1036">
<rect width="42" height="42" fill="white"/>
</clipPath>
</defs>
</svg>
