<svg width="60" height="60" viewBox="0 0 60 60" fill="none" xmlns="http://www.w3.org/2000/svg">
<path d="M56.5587 24.8927H50.4299L32.5539 13.9627C33.7796 13.2477 34.6989 12.1241 35.0054 10.694C35.6183 8.14036 34.1882 5.58664 31.7367 4.66727C31.3281 4.56513 31.0216 4.25868 31.0216 3.85009V1.39855C31.0216 0.887813 30.5109 0.377075 30.0001 0.377075C29.4894 0.377075 28.9787 0.887813 28.9787 1.39855V3.85009C28.9787 5.07586 29.7958 6.19952 31.0216 6.60811C32.3495 7.11885 33.371 8.44677 32.9624 10.1833C32.656 11.307 31.8388 12.2263 30.7152 12.4306C29.7959 12.6349 28.7744 12.4306 28.0594 11.8177C27.3443 11.4091 26.9357 10.4898 26.9357 9.57042C26.9357 9.05968 26.425 8.54895 25.9142 8.54895C25.4035 8.54895 24.8928 9.05968 24.8928 9.57042C24.8928 11.1027 25.6078 12.6349 26.8336 13.5542C27.0379 13.7585 27.2422 13.8607 27.4465 13.9628L9.57048 24.8928H3.44163C1.70515 24.8928 0.377197 26.2206 0.377197 27.9572V56.5585C0.377197 58.1929 1.70508 59.6229 3.44163 59.6229H56.5584C58.2949 59.6229 59.6228 58.1929 59.6228 56.5585V27.9572C59.6228 26.2207 58.2952 24.8927 56.5587 24.8927ZM30.0003 14.8826L46.5479 24.8927H13.4521L30.0003 14.8826ZM13.6567 52.4729C13.6567 52.9836 13.146 53.4943 12.6352 53.4943C12.1245 53.4943 11.6138 52.9836 11.6138 52.4729V32.0434C11.6138 31.5326 12.1245 31.0219 12.6352 31.0219C13.146 31.0219 13.6567 31.5326 13.6567 32.0434V52.4729ZM25.1992 52.4729C25.1992 52.9836 24.7906 53.4943 24.1777 53.4943C23.667 53.4943 23.1563 52.9836 23.1563 52.4729V32.0434C23.1563 31.5326 23.667 31.0219 24.1777 31.0219C24.7906 31.0219 25.1992 31.5326 25.1992 32.0434V52.4729ZM36.8437 52.4729C36.8437 52.9836 36.333 53.4943 35.8223 53.4943C35.2094 53.4943 34.8008 52.9836 34.8008 52.4729V32.0434C34.8008 31.5326 35.2094 31.0219 35.8223 31.0219C36.333 31.0219 36.8437 31.5326 36.8437 32.0434V52.4729ZM48.3862 52.4729C48.3862 52.9836 47.8755 53.4943 47.3648 53.4943C46.854 53.4943 46.3433 52.9836 46.3433 52.4729V32.0434C46.3433 31.5326 46.854 31.0219 47.3648 31.0219C47.8755 31.0219 48.3862 31.5326 48.3862 32.0434V52.4729Z" fill="white"/>
</svg>
