<svg width="47" height="56" viewBox="0 0 47 56" fill="none" xmlns="http://www.w3.org/2000/svg">
<g clip-path="url(#clip0_206_168)">
<path d="M34.0614 48.2044C32.0829 48.5619 30.292 49.5933 28.9971 51.121L28.9854 51.1351C28.4217 51.8721 27.6647 52.441 26.7971 52.7793C25.9296 53.1176 24.985 53.2123 24.0668 53.053L24.0974 53.0577V53.0274L23.9094 53.032L23.712 53.0274H23.7214V53.0577C22.81 53.2109 21.8738 53.1138 21.014 52.777C20.1541 52.4402 19.4033 51.8765 18.8428 51.1467L18.8334 51.1351C17.5511 49.6126 15.7759 48.5799 13.8114 48.2137L13.7574 48.2044C11.7857 47.7883 9.72885 48.0998 7.97182 49.0808C6.2148 50.0617 4.87802 51.6448 4.21167 53.5337L4.19287 53.592L6.97057 54.5137C7.41113 53.2707 8.29802 52.2327 9.46139 51.5985C10.6248 50.9643 11.9829 50.7785 13.2756 51.0767L13.2404 51.0697C14.615 51.3216 15.8503 52.0614 16.716 53.151L16.7254 53.1627C17.4856 54.0903 18.4533 54.8289 19.5516 55.3198C20.6498 55.8108 21.8483 56.0405 23.0516 55.9907H23.0375C23.3125 55.9907 23.6015 55.9767 23.907 55.958C24.2078 55.9767 24.4992 55.9907 24.7765 55.9907C25.9745 56.0387 27.1673 55.8094 28.2607 55.321C29.3542 54.8327 30.3182 54.0986 31.0769 53.1767L31.0886 53.1627C31.9465 52.0759 33.1722 51.3348 34.5384 51.0767L34.5737 51.072C35.8558 50.7828 37.2003 50.9696 38.3533 51.5972C39.5062 52.2248 40.3878 53.2498 40.8317 54.4787L40.8435 54.516L43.6212 53.5944C42.96 51.6836 41.6152 50.0803 39.8421 49.0888C38.069 48.0974 35.9911 47.7868 34.0026 48.216L34.0567 48.2067L34.0614 48.2044Z" fill="white"/>
<path d="M7.49885 27.5941C6.95445 27.5844 6.43362 27.3718 6.03979 26.9985C5.64597 26.6252 5.40797 26.1184 5.37304 25.5789C5.33812 25.0394 5.50884 24.5066 5.85129 24.0863C6.19374 23.6659 6.68287 23.3889 7.22155 23.3101H7.2333V23.3241L8.5352 23.5574C8.87618 23.7418 9.16087 24.014 9.35935 24.3453C9.55784 24.6766 9.6628 25.0549 9.6632 25.4404V25.4428C9.66259 26.0128 9.43491 26.5594 9.02986 26.9633C8.6248 27.3672 8.07527 27.5957 7.5012 27.5988L7.49885 27.5941ZM10.1567 13.1321L16.5487 10.9061H31.2668L37.6588 13.1321V18.4568L23.9089 16.2168L10.1591 18.4568L10.1567 13.1321ZM19.5967 2.90743H28.2212L29.6053 7.99643H18.2125L19.5967 2.90743ZM39.2873 23.5504L40.5892 23.3171V23.3054C41.1129 23.3706 41.5948 23.6227 41.945 24.0146C42.2953 24.4066 42.49 24.9118 42.4927 25.4358C42.4927 26.007 42.2642 26.5547 41.8574 26.9586C41.4506 27.3625 40.8989 27.5894 40.3237 27.5894C39.7484 27.5894 39.1967 27.3625 38.7899 26.9586C38.3831 26.5547 38.1546 26.007 38.1546 25.4358V25.4334C38.1546 24.6238 38.6058 23.9191 39.2709 23.5551L39.2826 23.5504H39.2873ZM11.985 45.8641H11.9991C12.7582 45.8641 13.5008 45.9318 14.2222 46.0624L14.147 46.0508C16.5781 46.4879 18.7851 47.7388 20.4004 49.5951L20.4121 49.6091C20.774 50.0524 21.2111 50.4188 21.7046 50.6941L21.7281 50.7058V50.6638L23.8502 50.8504H23.9395L26.0709 50.6381V50.7128C26.5879 50.4258 27.025 50.0594 27.3799 49.6278L27.3869 49.6208C28.9854 47.7718 31.1715 46.5198 33.5839 46.0718L33.6497 46.0624C34.2983 45.9411 35.0456 45.8688 35.8093 45.8664H35.8234C36.6177 45.8664 37.3932 45.9504 38.1382 46.1138L38.0676 46.0998L47.8037 20.1204L40.5728 18.9398V11.0764L32.712 8.33709L30.456 0.00476074H17.3477L15.0917 8.33709L7.23095 11.0764V18.9398L0 20.1204L9.73605 46.0998C10.4105 45.9504 11.186 45.8664 11.9803 45.8664H11.9944L11.985 45.8641Z" fill="white"/>
</g>
<defs>
<clipPath id="clip0_206_168">
<rect width="47" height="56" fill="white"/>
</clipPath>
</defs>
</svg>
