<svg width="62" height="44" viewBox="0 0 62 44" fill="none" xmlns="http://www.w3.org/2000/svg">
<path d="M47.5 39.875C46.406 39.875 45.3568 39.4404 44.5832 38.6668C43.8096 37.8932 43.375 36.844 43.375 35.75C43.375 34.656 43.8096 33.6068 44.5832 32.8332C45.3568 32.0596 46.406 31.625 47.5 31.625C48.594 31.625 49.6432 32.0596 50.4168 32.8332C51.1904 33.6068 51.625 34.656 51.625 35.75C51.625 36.844 51.1904 37.8932 50.4168 38.6668C49.6432 39.4404 48.594 39.875 47.5 39.875ZM51.625 15.125L57.015 22H44.75V15.125M14.5 39.875C13.406 39.875 12.3568 39.4404 11.5832 38.6668C10.8096 37.8932 10.375 36.844 10.375 35.75C10.375 34.656 10.8096 33.6068 11.5832 32.8332C12.3568 32.0596 13.406 31.625 14.5 31.625C15.594 31.625 16.6432 32.0596 17.4168 32.8332C18.1904 33.6068 18.625 34.656 18.625 35.75C18.625 36.844 18.1904 37.8932 17.4168 38.6668C16.6432 39.4404 15.594 39.875 14.5 39.875ZM53 11H44.75V0H6.25C3.1975 0 0.75 2.4475 0.75 5.5V35.75H6.25C6.25 37.938 7.11919 40.0365 8.66637 41.5836C10.2135 43.1308 12.312 44 14.5 44C16.688 44 18.7865 43.1308 20.3336 41.5836C21.8808 40.0365 22.75 37.938 22.75 35.75H39.25C39.25 37.938 40.1192 40.0365 41.6664 41.5836C43.2135 43.1308 45.312 44 47.5 44C49.688 44 51.7865 43.1308 53.3336 41.5836C54.8808 40.0365 55.75 37.938 55.75 35.75H61.25V22L53 11Z" fill="white"/>
</svg>
