<svg width="42" height="42" viewBox="0 0 42 42" fill="none" xmlns="http://www.w3.org/2000/svg">
<g clip-path="url(#clip0_194_655)">
<path fill-rule="evenodd" clip-rule="evenodd" d="M36.0938 32.9766H4.10156C3.85547 32.9766 3.69141 32.8125 3.60938 32.6484L0 21.082C0 20.918 0 20.7539 0.0820312 20.6719C0.164062 20.5078 0.328125 20.4258 0.492188 20.4258H41.5078C41.6719 20.4258 41.8359 20.5078 41.918 20.6719C42 20.8359 42 21 41.918 21.1641L36.5039 32.6484C36.4219 32.8945 36.2578 32.9766 36.0938 32.9766ZM4.42969 31.9922H35.7656L40.7695 21.4102H1.14844L4.42969 31.9922Z" fill="black"/>
<path fill-rule="evenodd" clip-rule="evenodd" d="M15.0117 21.4102H2.95312C2.70703 21.4102 2.46094 21.2461 2.46094 20.918V12.8789C2.46094 12.6328 2.70703 12.3867 2.95312 12.3867H15.0117C15.3398 12.3867 15.5039 12.6328 15.5039 12.8789V20.918C15.5039 21.2461 15.3398 21.4102 15.0117 21.4102ZM3.44531 20.4258H14.5195V13.3711H3.44531V20.4258Z" fill="black"/>
<path fill-rule="evenodd" clip-rule="evenodd" d="M12.2227 13.3711H5.74219C5.49609 13.3711 5.25 13.207 5.25 12.8789V7.05469C5.25 6.80859 5.49609 6.5625 5.74219 6.5625H12.2227C12.5508 6.5625 12.7148 6.80859 12.7148 7.05469V12.8789C12.7148 13.207 12.5508 13.3711 12.2227 13.3711ZM6.23438 12.3867H11.7305V7.54688H6.23438V12.3867Z" fill="black"/>
<path fill-rule="evenodd" clip-rule="evenodd" d="M27.5625 27.2344H2.29688C1.96875 27.2344 1.80469 26.9883 1.80469 26.7422C1.80469 26.4141 1.96875 26.25 2.29688 26.25H27.5625C27.8086 26.25 28.0547 26.4141 28.0547 26.7422C28.0547 26.9883 27.8086 27.2344 27.5625 27.2344Z" fill="black"/>
<path fill-rule="evenodd" clip-rule="evenodd" d="M22.4766 24.6094H1.47656C1.23047 24.6094 0.984375 24.3633 0.984375 24.1172C0.984375 23.7891 1.23047 23.625 1.47656 23.625H22.4766C22.8047 23.625 22.9688 23.7891 22.9688 24.1172C22.9688 24.3633 22.8047 24.6094 22.4766 24.6094Z" fill="black"/>
<path fill-rule="evenodd" clip-rule="evenodd" d="M18.7852 29.8594H3.11719C2.78906 29.8594 2.625 29.6133 2.625 29.3672C2.625 29.0391 2.78906 28.875 3.11719 28.875H18.7852C19.0312 28.875 19.2773 29.0391 19.2773 29.3672C19.2773 29.6133 19.0312 29.8594 18.7852 29.8594Z" fill="black"/>
<path fill-rule="evenodd" clip-rule="evenodd" d="M27.3984 21.4102H18.375C18.1289 21.4102 17.8828 21.2461 17.8828 20.918V14.9297C17.8828 14.6836 18.1289 14.4375 18.375 14.4375H27.3984C27.7266 14.4375 27.8906 14.6836 27.8906 14.9297V20.918C27.8906 21.2461 27.7266 21.4102 27.3984 21.4102ZM18.8672 20.4258H26.9062V15.4219H18.8672V20.4258Z" fill="black"/>
<path fill-rule="evenodd" clip-rule="evenodd" d="M24.1992 18.457H21.6562C21.4102 18.457 21.1641 18.2109 21.1641 17.9648V14.9297C21.1641 14.6836 21.4102 14.4375 21.6562 14.4375H24.1992C24.4453 14.4375 24.6914 14.6836 24.6914 14.9297V17.9648C24.6914 18.2109 24.4453 18.457 24.1992 18.457ZM22.1484 17.4727H23.707V15.4219H22.1484V17.4727Z" fill="black"/>
<path fill-rule="evenodd" clip-rule="evenodd" d="M38.8008 21.4102H29.7773C29.5312 21.4102 29.2852 21.2461 29.2852 20.918V14.9297C29.2852 14.6836 29.5312 14.4375 29.7773 14.4375H38.8008C39.0469 14.4375 39.293 14.6836 39.293 14.9297V20.918C39.293 21.2461 39.0469 21.4102 38.8008 21.4102ZM30.2695 20.4258H38.3086V15.4219H30.2695V20.4258Z" fill="black"/>
<path fill-rule="evenodd" clip-rule="evenodd" d="M35.5195 18.457H33.0586C32.7305 18.457 32.5664 18.2109 32.5664 17.9648V14.9297C32.5664 14.6836 32.7305 14.4375 33.0586 14.4375H35.5195C35.8477 14.4375 36.0117 14.6836 36.0117 14.9297V17.9648C36.0117 18.2109 35.8477 18.457 35.5195 18.457ZM33.5508 17.4727H35.0273V15.4219H33.5508V17.4727Z" fill="black"/>
<path fill-rule="evenodd" clip-rule="evenodd" d="M15.0117 18.7031H2.95312C2.70703 18.7031 2.46094 18.5391 2.46094 18.2109C2.46094 17.9648 2.70703 17.7188 2.95312 17.7188H15.0117C15.3398 17.7188 15.5039 17.9648 15.5039 18.2109C15.5039 18.5391 15.3398 18.7031 15.0117 18.7031Z" fill="black"/>
<path fill-rule="evenodd" clip-rule="evenodd" d="M7.46484 7.54688C7.13672 7.54688 6.97266 7.30078 6.97266 7.05469V1.14844C6.97266 0.820312 7.13672 0.65625 7.46484 0.65625C7.71094 0.65625 7.95703 0.820312 7.95703 1.14844V7.05469C7.95703 7.30078 7.71094 7.54688 7.46484 7.54688Z" fill="black"/>
<path fill-rule="evenodd" clip-rule="evenodd" d="M10.418 7.54688C10.0898 7.54688 9.92578 7.30078 9.92578 7.05469V3.36328C9.92578 3.11719 10.0898 2.87109 10.418 2.87109C10.6641 2.87109 10.9102 3.11719 10.9102 3.36328V7.05469C10.9102 7.30078 10.6641 7.54688 10.418 7.54688Z" fill="black"/>
<path fill-rule="evenodd" clip-rule="evenodd" d="M19.1133 37.8164C18.375 37.8164 17.6367 37.4062 16.9805 36.9961C16.4883 36.5859 15.9141 36.2578 15.4219 36.2578C14.9297 36.2578 14.3555 36.5859 13.7812 36.9961C13.125 37.4062 12.4688 37.8164 11.6484 37.8164C10.9102 37.8164 10.2539 37.4062 9.51562 36.9961C9.02344 36.5859 8.44922 36.2578 7.95703 36.2578C7.46484 36.2578 6.89062 36.5859 6.31641 36.9961C5.66016 37.4062 5.00391 37.8164 4.18359 37.8164C3.44531 37.8164 2.78906 37.4062 2.05078 36.9961C1.55859 36.5859 0.984375 36.2578 0.492188 36.2578C0.246094 36.2578 0 36.0117 0 35.7656C0 35.4375 0.246094 35.2734 0.492188 35.2734C1.23047 35.2734 1.96875 35.6836 2.625 36.0938C3.19922 36.5039 3.77344 36.832 4.18359 36.832C4.67578 36.832 5.25 36.5039 5.82422 36.0938C6.48047 35.6836 7.21875 35.2734 7.95703 35.2734C8.69531 35.2734 9.43359 35.6836 10.0898 36.0938C10.6641 36.5039 11.2383 36.832 11.6484 36.832C12.1406 36.832 12.7148 36.5039 13.2891 36.0938C13.9453 35.6836 14.6016 35.2734 15.4219 35.2734C16.1602 35.2734 16.8984 35.6836 17.5547 36.0938C18.1289 36.5039 18.6211 36.832 19.1133 36.832C19.6055 36.832 20.1797 36.5039 20.7539 36.0938C21.4102 35.6836 22.0664 35.2734 22.8867 35.2734C23.625 35.2734 24.3633 35.6836 25.0195 36.0938C25.5117 36.5039 26.0859 36.832 26.5781 36.832C27.0703 36.832 27.6445 36.5039 28.2188 36.0938C28.875 35.6836 29.5312 35.2734 30.3516 35.2734C31.0898 35.2734 31.7461 35.6836 32.4844 36.0938C32.9766 36.5039 33.5508 36.832 34.043 36.832C34.5352 36.832 35.1094 36.5039 35.6836 36.0938C36.3398 35.6836 36.9961 35.2734 37.8164 35.2734C38.5547 35.2734 39.2109 35.6836 39.9492 36.0938C40.4414 36.5039 41.0156 36.832 41.5078 36.832C41.7539 36.832 42 37.0781 42 37.3242C42 37.6523 41.7539 37.8164 41.5078 37.8164C40.7695 37.8164 40.0312 37.4062 39.375 36.9961C38.8008 36.5859 38.2266 36.2578 37.8164 36.2578C37.3242 36.2578 36.75 36.5859 36.1758 36.9961C35.5195 37.4062 34.7812 37.8164 34.043 37.8164C33.3047 37.8164 32.5664 37.4062 31.9102 36.9961C31.3359 36.5859 30.7617 36.2578 30.3516 36.2578C29.8594 36.2578 29.2852 36.5859 28.7109 36.9961C28.0547 37.4062 27.3984 37.8164 26.5781 37.8164C25.8398 37.8164 25.1016 37.4062 24.4453 36.9961C23.8711 36.5859 23.3789 36.2578 22.8867 36.2578C22.3945 36.2578 21.8203 36.5859 21.2461 36.9961C20.5898 37.4062 19.9336 37.8164 19.1133 37.8164Z" fill="black"/>
<path fill-rule="evenodd" clip-rule="evenodd" d="M19.1133 41.3438C18.375 41.3438 17.6367 40.9336 16.9805 40.5234C16.4883 40.1133 15.9141 39.7852 15.4219 39.7852C14.9297 39.7852 14.3555 40.1133 13.7812 40.5234C13.125 40.9336 12.4688 41.3438 11.6484 41.3438C10.9102 41.3438 10.2539 40.9336 9.51562 40.5234C9.02344 40.1133 8.44922 39.7852 7.95703 39.7852C7.46484 39.7852 6.89062 40.1133 6.31641 40.5234C5.66016 40.9336 5.00391 41.3438 4.18359 41.3438C3.44531 41.3438 2.78906 40.9336 2.05078 40.5234C1.55859 40.1133 0.984375 39.7852 0.492188 39.7852C0.246094 39.7852 0 39.5391 0 39.293C0 38.9648 0.246094 38.8008 0.492188 38.8008C1.23047 38.8008 1.96875 39.2109 2.625 39.6211C3.19922 40.0312 3.77344 40.3594 4.18359 40.3594C4.67578 40.3594 5.25 40.0312 5.82422 39.6211C6.48047 39.2109 7.21875 38.8008 7.95703 38.8008C8.69531 38.8008 9.43359 39.2109 10.0898 39.6211C10.6641 40.0312 11.2383 40.3594 11.6484 40.3594C12.1406 40.3594 12.7148 40.0312 13.2891 39.6211C13.9453 39.2109 14.6016 38.8008 15.4219 38.8008C16.1602 38.8008 16.8984 39.2109 17.5547 39.6211C18.1289 40.0312 18.6211 40.3594 19.1133 40.3594C19.6055 40.3594 20.1797 40.0312 20.7539 39.6211C21.4102 39.2109 22.0664 38.8008 22.8867 38.8008C23.625 38.8008 24.3633 39.2109 25.0195 39.6211C25.5117 40.0312 26.0859 40.3594 26.5781 40.3594C27.0703 40.3594 27.6445 40.0312 28.2188 39.6211C28.875 39.2109 29.5312 38.8008 30.3516 38.8008C31.0898 38.8008 31.7461 39.2109 32.4844 39.6211C32.9766 40.0312 33.5508 40.3594 34.043 40.3594C34.5352 40.3594 35.1094 40.0312 35.6836 39.6211C36.3398 39.2109 36.9961 38.8008 37.8164 38.8008C38.5547 38.8008 39.2109 39.2109 39.9492 39.6211C40.4414 40.0312 41.0156 40.3594 41.5078 40.3594C41.7539 40.3594 42 40.6055 42 40.8516C42 41.1797 41.7539 41.3438 41.5078 41.3438C40.7695 41.3438 40.0312 40.9336 39.375 40.5234C38.8008 40.1133 38.2266 39.7852 37.8164 39.7852C37.3242 39.7852 36.75 40.1133 36.1758 40.5234C35.5195 40.9336 34.7812 41.3438 34.043 41.3438C33.3047 41.3438 32.5664 40.9336 31.9102 40.5234C31.3359 40.1133 30.7617 39.7852 30.3516 39.7852C29.8594 39.7852 29.2852 40.1133 28.7109 40.5234C28.0547 40.9336 27.3984 41.3438 26.5781 41.3438C25.8398 41.3438 25.1016 40.9336 24.4453 40.5234C23.8711 40.1133 23.3789 39.7852 22.8867 39.7852C22.3945 39.7852 21.8203 40.1133 21.2461 40.5234C20.5898 40.9336 19.9336 41.3438 19.1133 41.3438Z" fill="black"/>
</g>
<defs>
<clipPath id="clip0_194_655">
<rect width="42" height="42" fill="white"/>
</clipPath>
</defs>
</svg>
