<svg width="391" height="169" viewBox="0 0 391 169" fill="none" xmlns="http://www.w3.org/2000/svg">
<path d="M0 136.343V168.989C26.5021 168.436 47.816 146.752 47.816 120.085V55.3471C47.816 39.9238 57.7249 32.6239 64.0873 32.6239C70.4498 32.6239 80.3586 39.9238 80.3586 55.3471V113.653C80.3586 141.347 99.6077 169 129.213 169C158.819 169 178.068 141.347 178.068 113.653V55.3471C178.068 39.9238 187.977 32.6239 194.339 32.6239C200.702 32.6239 210.611 39.9238 210.611 55.3471V113.653C210.611 141.347 229.86 169 259.465 169C289.071 169 308.32 141.347 308.32 113.653V55.3471C308.32 39.9238 318.229 32.6239 324.591 32.6239C330.954 32.6239 340.862 39.9239 340.862 55.3471V113.653C340.862 141.347 360.111 169 389.717 169C390.147 169 390.575 168.994 391 168.983V136.283C390.56 136.345 390.131 136.376 389.717 136.376C383.355 136.376 373.446 129.076 373.446 113.653V55.3471C373.446 27.6533 354.197 0 324.591 0C294.985 0 275.736 27.6534 275.736 55.3471V113.653C275.736 129.076 265.828 136.376 259.465 136.376C253.103 136.376 243.194 129.076 243.194 113.653V55.3471C243.194 27.6534 223.945 0 194.339 0C164.734 0 145.485 27.6534 145.485 55.3471V113.653C145.485 129.076 135.576 136.376 129.213 136.376C122.851 136.376 112.942 129.076 112.942 113.653V55.3471C112.942 27.6534 93.6929 0 64.0873 0C34.4818 0 15.2327 27.6534 15.2327 55.3471V120.085C15.2327 128.733 8.50245 135.807 0 136.343Z" fill="#FFCC4D"/>
</svg>
