<svg
                            width="32"
                            height="32"
                            viewBox="0 0 32 32"
                            fill="none"
                            xmlns="http://www.w3.org/2000/svg"
                        >
                            <g clip-path="url(#clip0_0_901)">
                                <path
                                    d="M24.1684 19.0251C21.9442 19.0251 20.1348 20.8346 20.1348 23.0588C20.1348 25.283 21.9442 27.0924 24.1684 27.0924C26.3929 27.0924 28.202 25.283 28.202 23.0588C28.202 20.8346 26.3926 19.0251 24.1684 19.0251ZM24.1684 25.0756C23.0561 25.0756 22.1516 24.171 22.1516 23.0588C22.1516 21.9465 23.0561 21.042 24.1684 21.042C25.2806 21.042 26.1852 21.9465 26.1852 23.0588C26.1852 24.1711 25.2806 25.0756 24.1684 25.0756Z"
                                    fill="#ECAC00"
                                />
                                <path
                                    d="M10.3862 19.0251C8.16198 19.0251 6.35254 20.8346 6.35254 23.0588C6.35254 25.283 8.16198 27.0924 10.3862 27.0924C12.6104 27.0924 14.4198 25.283 14.4198 23.0588C14.4198 20.8346 12.6104 19.0251 10.3862 19.0251ZM10.3862 25.0756C9.27392 25.0756 8.36935 24.171 8.36935 23.0588C8.36935 21.9465 9.27392 21.042 10.3862 21.042C11.4981 21.042 12.403 21.9465 12.403 23.0588C12.403 24.1711 11.4984 25.0756 10.3862 25.0756Z"
                                    fill="#ECAC00"
                                />
                                <path
                                    d="M26.884 7.47963C26.7126 7.13913 26.364 6.92432 25.9828 6.92432H20.6719V8.94113H25.3609L28.1068 14.4026L29.9092 13.4964L26.884 7.47963Z"
                                    fill="#ECAC00"
                                />
                                <path
                                    d="M21.1429 22.084H13.5127V24.1008H21.1429V22.084Z"
                                    fill="#ECAC00"
                                />
                                <path
                                    d="M7.36155 22.084H3.8658C3.3088 22.084 2.85742 22.5354 2.85742 23.0924C2.85742 23.6494 3.30886 24.1007 3.8658 24.1007H7.36161C7.91861 24.1007 8.36999 23.6493 8.36999 23.0924C8.36999 22.5354 7.91855 22.084 7.36155 22.084Z"
                                    fill="#ECAC00"
                                />
                                <path
                                    d="M31.7884 15.9192L29.805 13.3646C29.6144 13.1185 29.3203 12.9747 29.0086 12.9747H21.6809V5.91585C21.6809 5.35885 21.2295 4.90747 20.6725 4.90747H3.8658C3.3088 4.90747 2.85742 5.35891 2.85742 5.91585C2.85742 6.47278 3.30886 6.92422 3.8658 6.92422H19.6641V13.983C19.6641 14.54 20.1155 14.9914 20.6725 14.9914H28.5148L29.9834 16.8832V22.0838H27.1935C26.6365 22.0838 26.1851 22.5353 26.1851 23.0922C26.1851 23.6492 26.6365 24.1006 27.1935 24.1006H30.9918C31.5488 24.1006 32.0001 23.6492 32.0002 23.0922V16.5377C32.0002 16.3138 31.9256 16.096 31.7884 15.9192Z"
                                    fill="#ECAC00"
                                />
                                <path
                                    d="M7.29452 16.9749H2.65584C2.09884 16.9749 1.64746 17.4263 1.64746 17.9832C1.64746 18.5402 2.0989 18.9916 2.65584 18.9916H7.29446C7.85146 18.9916 8.30283 18.5402 8.30283 17.9832C8.3029 17.4263 7.85146 16.9749 7.29452 16.9749Z"
                                    fill="#FFCC4D"
                                />
                                <path
                                    d="M9.61344 13.0083H1.00838C0.451438 13.0083 0 13.4597 0 14.0167C0 14.5737 0.451438 15.0251 1.00838 15.0251H9.61344C10.1704 15.0251 10.6218 14.5737 10.6218 14.0167C10.6218 13.4598 10.1704 13.0083 9.61344 13.0083Z"
                                    fill="#FFCC4D"
                                />
                                <path
                                    d="M11.2609 9.04199H2.65584C2.09884 9.04199 1.64746 9.49343 1.64746 10.0504C1.64746 10.6074 2.0989 11.0587 2.65584 11.0587H11.2609C11.8179 11.0587 12.2693 10.6073 12.2693 10.0504C12.2693 9.49343 11.8179 9.04199 11.2609 9.04199Z"
                                    fill="#FFCC4D"
                                />
                            </g>
                            <defs>
                                <clipPath id="clip0_0_901">
                                    <rect width="32" height="32" fill="white" />
                                </clipPath>
                            </defs>
                        </svg>