<svg width="24" height="24" viewBox="0 0 24 24" fill="none" xmlns="http://www.w3.org/2000/svg">
<g clip-path="url(#clip0_27_2936)">
<path d="M0 6.00016V8.66683H24V6.00016C24 5.29292 23.719 4.61464 23.219 4.11454C22.7189 3.61445 22.0406 3.3335 21.3333 3.3335H2.66667C1.95942 3.3335 1.28115 3.61445 0.781049 4.11454C0.280952 4.61464 0 5.29292 0 6.00016Z" fill="#0099B5"/>
<path d="M24 18.0002V15.3335H0V18.0002C0 18.7074 0.280952 19.3857 0.781049 19.8858C1.28115 20.3859 1.95942 20.6668 2.66667 20.6668H21.3333C22.0406 20.6668 22.7189 20.3859 23.219 19.8858C23.719 19.3857 24 18.7074 24 18.0002Z" fill="#1EB53A"/>
<path d="M0 8.6665H24V9.6665H0V8.6665ZM0 14.3332H24V15.3332H0V14.3332Z" fill="#CE1126"/>
<path d="M0 11.9998V14.3332H24V9.6665H0V11.9998Z" fill="#EEEEEE"/>
<path d="M2.80022 6.10686C2.80028 5.61535 2.97439 5.13974 3.29168 4.76437C3.60896 4.389 4.04893 4.13811 4.53356 4.05619C4.23522 4.00555 3.92942 4.02061 3.6375 4.10033C3.34558 4.18005 3.07457 4.32251 2.84339 4.51776C2.6122 4.71302 2.4264 4.95636 2.29895 5.23082C2.1715 5.50528 2.10547 5.80425 2.10547 6.10686C2.10547 6.40946 2.1715 6.70843 2.29895 6.98289C2.4264 7.25735 2.6122 7.50069 2.84339 7.69595C3.07457 7.8912 3.34558 8.03366 3.6375 8.11338C3.92942 8.1931 4.23522 8.20816 4.53356 8.15752C4.04893 8.0756 3.60896 7.82472 3.29168 7.44934C2.97439 7.07397 2.80028 6.59836 2.80022 6.10686ZM5.92222 7.64219L5.82889 7.35486L5.73556 7.64219H5.43289L5.67756 7.82019L5.58422 8.10752L5.82889 7.92952L6.07289 8.10752L5.97956 7.82019L6.22422 7.64219H5.92222ZM7.72356 7.64219L7.63022 7.35486L7.53689 7.64219H7.23489L7.47956 7.82019L7.38622 8.10752L7.63022 7.92952L7.87489 8.10752L7.78156 7.82019L8.02622 7.64219H7.72356ZM7.63022 5.69086L7.53689 5.97819H7.23489L7.47956 6.15619L7.38622 6.44352L7.63022 6.26552L7.87489 6.44352L7.78156 6.15619L8.02622 5.97819H7.72356L7.63022 5.69086ZM9.52556 7.64219L9.43222 7.35486L9.33889 7.64219H9.03689L9.28089 7.82019L9.18756 8.10752L9.43222 7.92952L9.67689 8.10752L9.58356 7.82019L9.82756 7.64219H9.52556ZM9.43222 5.69086L9.33889 5.97819H9.03689L9.28089 6.15619L9.18756 6.44352L9.43222 6.26552L9.67689 6.44352L9.58356 6.15619L9.82756 5.97819H9.52556L9.43222 5.69086ZM9.43222 4.02686L9.33889 4.31419H9.03689L9.28089 4.49219L9.18756 4.77952L9.43222 4.60152L9.67689 4.77952L9.58356 4.49219L9.82756 4.31419H9.52556L9.43222 4.02686ZM11.3276 7.64219L11.2342 7.35486L11.1409 7.64219H10.8382L11.0829 7.82019L10.9896 8.10752L11.2342 7.92952L11.4782 8.10752L11.3849 7.82019L11.6296 7.64219H11.3276ZM11.2342 5.69086L11.1409 5.97819H10.8382L11.0829 6.15619L10.9896 6.44352L11.2342 6.26552L11.4782 6.44352L11.3849 6.15619L11.6296 5.97819H11.3276L11.2342 5.69086ZM11.2342 4.02686L11.1409 4.31419H10.8382L11.0829 4.49219L10.9896 4.77952L11.2342 4.60152L11.4782 4.77952L11.3849 4.49219L11.6296 4.31419H11.3276L11.2342 4.02686ZM13.1289 7.64219L13.0356 7.35486L12.9422 7.64219H12.6402L12.8849 7.82019L12.7916 8.10752L13.0356 7.92952L13.2802 8.10752L13.1869 7.82019L13.4316 7.64219H13.1289ZM13.0356 5.69086L12.9422 5.97819H12.6402L12.8849 6.15619L12.7916 6.44352L13.0356 6.26552L13.2802 6.44352L13.1869 6.15619L13.4316 5.97819H13.1289L13.0356 5.69086ZM13.0356 4.02686L12.9422 4.31419H12.6402L12.8849 4.49219L12.7916 4.77952L13.0356 4.60152L13.2802 4.77952L13.1869 4.49219L13.4316 4.31419H13.1289L13.0356 4.02686Z" fill="black"/>
</g>
<defs>
<clipPath id="clip0_27_2936">
<rect width="24" height="24" fill="white"/>
</clipPath>
</defs>
</svg>
